<mxfile host="app.diagrams.net" modified="2023-09-26T14:01:50.793Z" agent="Mozilla/5.0 (Windows NT 10.0; Win64; x64) AppleWebKit/537.36 (KHTML, like Gecko) Chrome/117.0.0.0 Safari/537.36" version="21.7.5" etag="EwfgwRdqF4jkePTr_4pc" type="github">
  <diagram name="PÃ¡gina-1" id="j0urjSTnBFwaBmRkWKow">
    <mxGraphModel>
      <root>
        <mxCell id="0" />
        <mxCell id="1" parent="0" />
      </root>
    </mxGraphModel>
  </diagram>
</mxfile>
